<?xml version="1.0" encoding="UTF-8" standalone="no"?>
<!-- Created with Inkscape (http://www.inkscape.org/) -->

<svg
   sodipodi:docname="2hp_front-panel-9.8x128.5mm.svg"
   id="svg5"
   version="1.1"
   viewBox="0 0 9.8000002 128.5"
   height="128.5mm"
   width="9.8000002mm"
   inkscape:version="1.1.2 (b8e25be8, 2022-02-05)"
   xmlns:inkscape="http://www.inkscape.org/namespaces/inkscape"
   xmlns:sodipodi="http://sodipodi.sourceforge.net/DTD/sodipodi-0.dtd"
   xmlns="http://www.w3.org/2000/svg"
   xmlns:svg="http://www.w3.org/2000/svg">
  <sodipodi:namedview
     id="namedview7"
     pagecolor="#ffffff"
     bordercolor="#666666"
     borderopacity="1.0"
     inkscape:pageshadow="2"
     inkscape:pageopacity="0.0"
     inkscape:pagecheckerboard="0"
     inkscape:document-units="mm"
     showgrid="false"
     inkscape:zoom="0.91524036"
     inkscape:cx="-42.611757"
     inkscape:cy="239.82771"
     inkscape:window-width="1312"
     inkscape:window-height="969"
     inkscape:window-x="0"
     inkscape:window-y="25"
     inkscape:window-maximized="0"
     inkscape:current-layer="layer1"
     width="9.8mm" />
  <defs
     id="defs2" />
  <g
     inkscape:label="Layer 1"
     inkscape:groupmode="layer"
     id="layer1">
    <g
       inkscape:label="EuroPanel"
       id="g835">
      <rect
         style="fill:#e6e6e6;stroke:none;stroke-width:0mm"
         height="128.5"
         width="9.8000002"
         x="0"
         y="0"
         rx="0"
         ry="0"
         id="rect821" />
      <path
         style="fill:#ffffff;stroke:none;stroke-width:0mm"
         sodipodi:cx="7.5"
         sodipodi:cy="125.5"
         sodipodi:rx="1.6"
         sodipodi:ry="1.6"
         sodipodi:start="0"
         sodipodi:end="6.28318"
         sodipodi:open="true"
         sodipodi:type="arc"
         id="path823"
         sodipodi:arc-type="arc"
         d="M 9.1,125.5 A 1.6,1.6 0 0 1 7.5000021,127.1 1.6,1.6 0 0 1 5.9,125.5 1.6,1.6 0 0 1 7.4999936,123.9 1.6,1.6 0 0 1 9.1,125.49999" />
      <path
         style="fill:#ffffff;stroke:none;stroke-width:0mm"
         sodipodi:cx="7.5"
         sodipodi:cy="3"
         sodipodi:rx="1.6"
         sodipodi:ry="1.6"
         sodipodi:start="0"
         sodipodi:end="6.28318"
         sodipodi:open="true"
         sodipodi:type="arc"
         id="path825"
         sodipodi:arc-type="arc"
         d="M 9.1,3 A 1.6,1.6 0 0 1 7.5000021,4.6 1.6,1.6 0 0 1 5.9,3.0000042 1.6,1.6 0 0 1 7.4999936,1.4 1.6,1.6 0 0 1 9.1,2.9999915" />
      <path
         style="fill:none;stroke:#f6921e;stroke-width:0.05mm"
         d="M 6.7,125.5 H 8.3"
         id="path827" />
      <path
         style="fill:none;stroke:#f6921e;stroke-width:0.05mm"
         d="m 7.5,126.3 v -1.6"
         id="path829" />
      <path
         style="fill:none;stroke:#f6921e;stroke-width:0.05mm"
         d="M 6.7,3 H 8.3"
         id="path831" />
      <path
         style="fill:none;stroke:#f6921e;stroke-width:0.05mm"
         d="M 7.5,3.8 V 2.2"
         id="path833" />
    </g>
  </g>
</svg>
